<mxfile host="app.diagrams.net" modified="2021-01-28T16:07:12.650Z" agent="5.0 (Macintosh; Intel Mac OS X 10_15_7) AppleWebKit/605.1.15 (KHTML, like Gecko) Version/13.1.3 Safari/605.1.15" etag="zplzbSFDOh2OMXh5Bhl-" version="14.2.7" type="github">
  <diagram id="TMXSOWhYbLECOYfklIyv" name="Page-1">
    <mxGraphModel dx="4512" dy="1122" grid="1" gridSize="10" guides="1" tooltips="1" connect="1" arrows="1" fold="1" page="1" pageScale="1" pageWidth="850" pageHeight="1100" math="0" shadow="0">
      <root>
        <mxCell id="0" />
        <mxCell id="1" parent="0" />
        <mxCell id="Ppe5W4pmTjv7zWw10zAY-29" value="" style="rounded=0;labelBackgroundColor=#ffffff;fillColor=#f5f5f5;strokeColor=#666666;whiteSpace=wrap;html=1;" parent="1" vertex="1">
          <mxGeometry x="-1180" y="230" width="1260" height="590" as="geometry" />
        </mxCell>
        <mxCell id="WNOsDTk-nys0i8xbJVlw-129" style="edgeStyle=orthogonalEdgeStyle;curved=1;orthogonalLoop=1;jettySize=auto;html=1;exitX=0.5;exitY=1;exitDx=0;exitDy=0;strokeColor=#000000;dashed=1;" parent="1" edge="1">
          <mxGeometry relative="1" as="geometry">
            <mxPoint x="-1820" y="372" as="targetPoint" />
            <mxPoint x="-1910" y="372" as="sourcePoint" />
          </mxGeometry>
        </mxCell>
        <mxCell id="WNOsDTk-nys0i8xbJVlw-130" value="mapping" style="text;html=1;align=center;verticalAlign=middle;resizable=0;points=[];autosize=1;" parent="1" vertex="1">
          <mxGeometry x="-1818" y="360" width="70" height="20" as="geometry" />
        </mxCell>
        <mxCell id="WNOsDTk-nys0i8xbJVlw-131" style="edgeStyle=orthogonalEdgeStyle;curved=1;orthogonalLoop=1;jettySize=auto;html=1;exitX=0.5;exitY=1;exitDx=0;exitDy=0;strokeColor=#000000;" parent="1" edge="1">
          <mxGeometry relative="1" as="geometry">
            <mxPoint x="-1820.0000000000002" y="412" as="targetPoint" />
            <mxPoint x="-1910.0000000000002" y="412" as="sourcePoint" />
          </mxGeometry>
        </mxCell>
        <mxCell id="WNOsDTk-nys0i8xbJVlw-132" value="structural containment" style="text;html=1;align=center;verticalAlign=middle;resizable=0;points=[];autosize=1;" parent="1" vertex="1">
          <mxGeometry x="-1823" y="400" width="160" height="20" as="geometry" />
        </mxCell>
        <mxCell id="WNOsDTk-nys0i8xbJVlw-160" value="&lt;b&gt;GENERAL ISSUES&lt;/b&gt;" style="text;html=1;align=center;verticalAlign=middle;resizable=0;points=[];autosize=1;" parent="1" vertex="1">
          <mxGeometry x="-1870" y="500" width="140" height="20" as="geometry" />
        </mxCell>
        <mxCell id="WNOsDTk-nys0i8xbJVlw-161" value="Compositions and Entries need a language, right now it is hardcoded to &quot;EN&quot;. One solution is the client library, since generates code by OPT, to set the language automatically in the class frm the OPT language. This works if the OPT supports just one language." style="shape=note;whiteSpace=wrap;html=1;backgroundOutline=1;darkOpacity=0.05;fillColor=#fff2cc;strokeColor=#d6b656;size=13;align=left;spacingLeft=4;" parent="1" vertex="1">
          <mxGeometry x="-1998" y="540" width="430" height="75" as="geometry" />
        </mxCell>
        <mxCell id="WNOsDTk-nys0i8xbJVlw-162" value="If the profile has more than one resource, it is difficult to map to one COMPOSITION in a RESTful way since FHIR does one request per resource. The workaround for now is the use the &quot;contained&quot; attribute to direct contain the children resources instead of including them by reference which is the most common option." style="shape=note;whiteSpace=wrap;html=1;backgroundOutline=1;darkOpacity=0.05;fillColor=#fff2cc;strokeColor=#d6b656;size=13;align=left;spacingLeft=4;" parent="1" vertex="1">
          <mxGeometry x="-1998" y="640" width="430" height="90" as="geometry" />
        </mxCell>
        <mxCell id="WNOsDTk-nys0i8xbJVlw-35" value="data point" style="ellipse;whiteSpace=wrap;html=1;aspect=fixed;fillColor=#d5e8d4;strokeColor=#82b366;" parent="1" vertex="1">
          <mxGeometry x="-1980" y="170" width="80" height="80" as="geometry" />
        </mxCell>
        <mxCell id="WNOsDTk-nys0i8xbJVlw-36" value="archetype" style="rounded=1;whiteSpace=wrap;html=1;fillColor=#ffe6cc;strokeColor=#d79b00;" parent="1" vertex="1">
          <mxGeometry x="-1865" y="180" width="125" height="60" as="geometry" />
        </mxCell>
        <mxCell id="WNOsDTk-nys0i8xbJVlw-37" value="template" style="rounded=1;whiteSpace=wrap;html=1;fillColor=#dae8fc;strokeColor=#6c8ebf;" parent="1" vertex="1">
          <mxGeometry x="-1710" y="180" width="120" height="60" as="geometry" />
        </mxCell>
        <mxCell id="WNOsDTk-nys0i8xbJVlw-38" value="profile" style="rounded=1;whiteSpace=wrap;html=1;fillColor=#f8cecc;strokeColor=#b85450;" parent="1" vertex="1">
          <mxGeometry x="-1865" y="270" width="124.5" height="60" as="geometry" />
        </mxCell>
        <mxCell id="WNOsDTk-nys0i8xbJVlw-39" value="note" style="shape=note;whiteSpace=wrap;html=1;backgroundOutline=1;darkOpacity=0.05;fillColor=#fff2cc;strokeColor=#d6b656;size=13;align=left;spacingLeft=4;" parent="1" vertex="1">
          <mxGeometry x="-1710" y="272.5" width="120" height="57.5" as="geometry" />
        </mxCell>
        <mxCell id="2" value="REFERENCE" style="text;html=1;align=center;verticalAlign=middle;resizable=0;points=[];autosize=1;fontStyle=1" parent="1" vertex="1">
          <mxGeometry x="-1852.5" y="120" width="100" height="20" as="geometry" />
        </mxCell>
        <mxCell id="WNOsDTk-nys0i8xbJVlw-103" value="reference" style="ellipse;whiteSpace=wrap;html=1;aspect=fixed;fillColor=#e1d5e7;strokeColor=#9673a6;" parent="1" vertex="1">
          <mxGeometry x="-1980" y="260" width="80" height="80" as="geometry" />
        </mxCell>
        <mxCell id="48C0j_drKvZkJ34L1-IZ-98" value="resource" style="rounded=1;whiteSpace=wrap;html=1;fillColor=#f5f5f5;strokeColor=#666666;fontColor=#333333;" parent="1" vertex="1">
          <mxGeometry x="-1568" y="270" width="124.5" height="60" as="geometry" />
        </mxCell>
        <mxCell id="BWCG1YFNvTNrp1tG9PvR-2" value="BloodPressure - &amp;nbsp;Observation" style="rounded=1;whiteSpace=wrap;html=1;fillColor=#f8cecc;strokeColor=#b85450;" parent="1" vertex="1">
          <mxGeometry x="-742.25" y="260" width="124.5" height="60" as="geometry" />
        </mxCell>
        <UserObject label="https://simplifier.net/forschungsnetzcovid-19/bloodpressure" link="https://simplifier.net/forschungsnetzcovid-19/bloodpressure" id="BWCG1YFNvTNrp1tG9PvR-3">
          <mxCell style="shape=note;whiteSpace=wrap;html=1;backgroundOutline=1;darkOpacity=0.05;fillColor=#fff2cc;strokeColor=#d6b656;size=13;align=left;spacingLeft=4;" parent="1" vertex="1">
            <mxGeometry x="-1140" y="255" width="220" height="50" as="geometry" />
          </mxCell>
        </UserObject>
        <mxCell id="BWCG1YFNvTNrp1tG9PvR-5" value="component: Backbone-Element" style="ellipse;whiteSpace=wrap;html=1;aspect=fixed;fillColor=#d5e8d4;strokeColor=#82b366;" parent="1" vertex="1">
          <mxGeometry x="-960" y="380" width="80" height="80" as="geometry" />
        </mxCell>
        <mxCell id="BWCG1YFNvTNrp1tG9PvR-6" value="systolicBP:&lt;br&gt;Backbone-&lt;br&gt;Element" style="ellipse;whiteSpace=wrap;html=1;aspect=fixed;fillColor=#d5e8d4;strokeColor=#82b366;" parent="1" vertex="1">
          <mxGeometry x="-1030" y="550" width="80" height="80" as="geometry" />
        </mxCell>
        <mxCell id="BWCG1YFNvTNrp1tG9PvR-8" value="value:&lt;br&gt;decimal" style="ellipse;whiteSpace=wrap;html=1;aspect=fixed;fillColor=#d5e8d4;strokeColor=#82b366;" parent="1" vertex="1">
          <mxGeometry x="-1110" y="720" width="80" height="80" as="geometry" />
        </mxCell>
        <mxCell id="BWCG1YFNvTNrp1tG9PvR-10" value="code:&amp;nbsp;&lt;br&gt;code" style="ellipse;whiteSpace=wrap;html=1;aspect=fixed;fillColor=#d5e8d4;strokeColor=#82b366;" parent="1" vertex="1">
          <mxGeometry x="-1000" y="720" width="80" height="80" as="geometry" />
        </mxCell>
        <mxCell id="BWCG1YFNvTNrp1tG9PvR-11" style="edgeStyle=orthogonalEdgeStyle;curved=1;orthogonalLoop=1;jettySize=auto;html=1;exitX=0.5;exitY=1;exitDx=0;exitDy=0;strokeColor=#000000;entryX=0.5;entryY=0;entryDx=0;entryDy=0;" parent="1" source="BWCG1YFNvTNrp1tG9PvR-6" target="BWCG1YFNvTNrp1tG9PvR-10" edge="1">
          <mxGeometry relative="1" as="geometry">
            <mxPoint x="-1010" y="630" as="targetPoint" />
            <mxPoint x="-1100.0000000000002" y="630" as="sourcePoint" />
            <Array as="points">
              <mxPoint x="-990" y="660" />
              <mxPoint x="-960" y="660" />
            </Array>
          </mxGeometry>
        </mxCell>
        <mxCell id="BWCG1YFNvTNrp1tG9PvR-12" style="edgeStyle=orthogonalEdgeStyle;curved=1;orthogonalLoop=1;jettySize=auto;html=1;exitX=0.5;exitY=1;exitDx=0;exitDy=0;strokeColor=#000000;entryX=0.5;entryY=0;entryDx=0;entryDy=0;" parent="1" source="BWCG1YFNvTNrp1tG9PvR-6" target="BWCG1YFNvTNrp1tG9PvR-8" edge="1">
          <mxGeometry relative="1" as="geometry">
            <mxPoint x="-1170" y="690.0000000000002" as="targetPoint" />
            <mxPoint x="-1240" y="559.9999999999998" as="sourcePoint" />
            <Array as="points">
              <mxPoint x="-990" y="660" />
              <mxPoint x="-1070" y="660" />
            </Array>
          </mxGeometry>
        </mxCell>
        <mxCell id="h2Y0RTakNAgf0IYQmvkw-2" value="diastolicBP:&lt;br&gt;Backbone-&lt;br&gt;Element" style="ellipse;whiteSpace=wrap;html=1;aspect=fixed;fillColor=#d5e8d4;strokeColor=#82b366;" parent="1" vertex="1">
          <mxGeometry x="-860" y="550" width="80" height="80" as="geometry" />
        </mxCell>
        <mxCell id="h2Y0RTakNAgf0IYQmvkw-3" value="value:&lt;br&gt;decimal" style="ellipse;whiteSpace=wrap;html=1;aspect=fixed;fillColor=#d5e8d4;strokeColor=#82b366;" parent="1" vertex="1">
          <mxGeometry x="-910" y="720" width="80" height="80" as="geometry" />
        </mxCell>
        <mxCell id="h2Y0RTakNAgf0IYQmvkw-4" value="code:&amp;nbsp;&lt;br&gt;code" style="ellipse;whiteSpace=wrap;html=1;aspect=fixed;fillColor=#d5e8d4;strokeColor=#82b366;" parent="1" vertex="1">
          <mxGeometry x="-790" y="720" width="80" height="80" as="geometry" />
        </mxCell>
        <mxCell id="h2Y0RTakNAgf0IYQmvkw-5" style="edgeStyle=orthogonalEdgeStyle;curved=1;orthogonalLoop=1;jettySize=auto;html=1;exitX=0.5;exitY=1;exitDx=0;exitDy=0;strokeColor=#000000;entryX=0.5;entryY=0;entryDx=0;entryDy=0;" parent="1" source="h2Y0RTakNAgf0IYQmvkw-2" edge="1">
          <mxGeometry relative="1" as="geometry">
            <mxPoint x="-870" y="725" as="targetPoint" />
            <mxPoint x="-770" y="645" as="sourcePoint" />
            <Array as="points">
              <mxPoint x="-820" y="680" />
              <mxPoint x="-870" y="680" />
            </Array>
          </mxGeometry>
        </mxCell>
        <mxCell id="h2Y0RTakNAgf0IYQmvkw-6" style="edgeStyle=orthogonalEdgeStyle;curved=1;orthogonalLoop=1;jettySize=auto;html=1;exitX=0.5;exitY=1;exitDx=0;exitDy=0;strokeColor=#000000;entryX=0.5;entryY=0;entryDx=0;entryDy=0;" parent="1" source="h2Y0RTakNAgf0IYQmvkw-2" target="h2Y0RTakNAgf0IYQmvkw-4" edge="1">
          <mxGeometry relative="1" as="geometry">
            <mxPoint x="-660" y="725" as="targetPoint" />
            <mxPoint x="-770" y="645" as="sourcePoint" />
            <Array as="points">
              <mxPoint x="-820" y="690" />
              <mxPoint x="-750" y="690" />
            </Array>
          </mxGeometry>
        </mxCell>
        <mxCell id="h2Y0RTakNAgf0IYQmvkw-7" style="edgeStyle=orthogonalEdgeStyle;curved=1;orthogonalLoop=1;jettySize=auto;html=1;strokeColor=#000000;entryX=0.5;entryY=0;entryDx=0;entryDy=0;exitX=0.5;exitY=1;exitDx=0;exitDy=0;" parent="1" source="BWCG1YFNvTNrp1tG9PvR-5" target="BWCG1YFNvTNrp1tG9PvR-6" edge="1">
          <mxGeometry relative="1" as="geometry">
            <mxPoint x="-1050" y="550" as="targetPoint" />
            <mxPoint x="-950" y="470" as="sourcePoint" />
            <Array as="points">
              <mxPoint x="-920" y="520" />
              <mxPoint x="-990" y="520" />
            </Array>
          </mxGeometry>
        </mxCell>
        <mxCell id="h2Y0RTakNAgf0IYQmvkw-8" style="edgeStyle=orthogonalEdgeStyle;curved=1;orthogonalLoop=1;jettySize=auto;html=1;exitX=0.5;exitY=1;exitDx=0;exitDy=0;strokeColor=#000000;entryX=0.5;entryY=0;entryDx=0;entryDy=0;" parent="1" source="BWCG1YFNvTNrp1tG9PvR-5" target="h2Y0RTakNAgf0IYQmvkw-2" edge="1">
          <mxGeometry relative="1" as="geometry">
            <mxPoint x="-800" y="560" as="targetPoint" />
            <mxPoint x="-910" y="480" as="sourcePoint" />
            <Array as="points">
              <mxPoint x="-920" y="520" />
              <mxPoint x="-820" y="520" />
            </Array>
          </mxGeometry>
        </mxCell>
        <mxCell id="h2Y0RTakNAgf0IYQmvkw-9" value="subject: ref" style="ellipse;whiteSpace=wrap;html=1;aspect=fixed;fillColor=#e1d5e7;strokeColor=#9673a6;" parent="1" vertex="1">
          <mxGeometry x="-770" y="400" width="80" height="80" as="geometry" />
        </mxCell>
        <mxCell id="h2Y0RTakNAgf0IYQmvkw-10" style="edgeStyle=orthogonalEdgeStyle;curved=1;orthogonalLoop=1;jettySize=auto;html=1;strokeColor=#000000;exitX=0.5;exitY=1;exitDx=0;exitDy=0;entryX=0.5;entryY=0;entryDx=0;entryDy=0;" parent="1" source="BWCG1YFNvTNrp1tG9PvR-2" target="dzw76KjQPkLIqhUCmITL-5" edge="1">
          <mxGeometry relative="1" as="geometry">
            <mxPoint x="-580" y="410" as="targetPoint" />
            <mxPoint x="-910" y="490" as="sourcePoint" />
            <Array as="points">
              <mxPoint x="-680" y="350" />
              <mxPoint x="-578" y="350" />
            </Array>
          </mxGeometry>
        </mxCell>
        <mxCell id="h2Y0RTakNAgf0IYQmvkw-11" style="edgeStyle=orthogonalEdgeStyle;curved=1;orthogonalLoop=1;jettySize=auto;html=1;strokeColor=#000000;entryX=0.5;entryY=0;entryDx=0;entryDy=0;exitX=0.5;exitY=1;exitDx=0;exitDy=0;" parent="1" target="BWCG1YFNvTNrp1tG9PvR-5" edge="1">
          <mxGeometry relative="1" as="geometry">
            <mxPoint x="-890" y="400" as="targetPoint" />
            <mxPoint x="-680" y="320" as="sourcePoint" />
            <Array as="points">
              <mxPoint x="-680" y="340" />
              <mxPoint x="-920" y="340" />
            </Array>
          </mxGeometry>
        </mxCell>
        <mxCell id="h2Y0RTakNAgf0IYQmvkw-13" value="effective: dateTime" style="ellipse;whiteSpace=wrap;html=1;aspect=fixed;fillColor=#d5e8d4;strokeColor=#82b366;" parent="1" vertex="1">
          <mxGeometry x="-480" y="400" width="80" height="80" as="geometry" />
        </mxCell>
        <mxCell id="h2Y0RTakNAgf0IYQmvkw-14" style="edgeStyle=orthogonalEdgeStyle;curved=1;orthogonalLoop=1;jettySize=auto;html=1;strokeColor=#000000;entryX=0.5;entryY=0;entryDx=0;entryDy=0;exitX=0.5;exitY=1;exitDx=0;exitDy=0;" parent="1" source="BWCG1YFNvTNrp1tG9PvR-2" target="h2Y0RTakNAgf0IYQmvkw-13" edge="1">
          <mxGeometry relative="1" as="geometry">
            <mxPoint x="-570" y="410" as="targetPoint" />
            <mxPoint x="-670" y="330" as="sourcePoint" />
            <Array as="points">
              <mxPoint x="-680" y="330" />
              <mxPoint x="-440" y="330" />
            </Array>
          </mxGeometry>
        </mxCell>
        <mxCell id="h2Y0RTakNAgf0IYQmvkw-20" value="diastolisch-&lt;br&gt;Magnitude:&lt;br&gt;double" style="ellipse;whiteSpace=wrap;html=1;aspect=fixed;fillColor=#d5e8d4;strokeColor=#82b366;" parent="1" vertex="1">
          <mxGeometry x="-910" y="890" width="80" height="80" as="geometry" />
        </mxCell>
        <mxCell id="h2Y0RTakNAgf0IYQmvkw-21" value="diastolisch-Units:&lt;br&gt;String" style="ellipse;whiteSpace=wrap;html=1;aspect=fixed;fillColor=#d5e8d4;strokeColor=#82b366;" parent="1" vertex="1">
          <mxGeometry x="-790" y="890" width="80" height="80" as="geometry" />
        </mxCell>
        <mxCell id="h2Y0RTakNAgf0IYQmvkw-22" value="systolisch-&lt;br&gt;Magnitude:&lt;br&gt;double" style="ellipse;whiteSpace=wrap;html=1;aspect=fixed;fillColor=#d5e8d4;strokeColor=#82b366;" parent="1" vertex="1">
          <mxGeometry x="-1110" y="890" width="80" height="80" as="geometry" />
        </mxCell>
        <mxCell id="h2Y0RTakNAgf0IYQmvkw-23" value="systolisch-Units:&lt;br&gt;String" style="ellipse;whiteSpace=wrap;html=1;aspect=fixed;fillColor=#d5e8d4;strokeColor=#82b366;" parent="1" vertex="1">
          <mxGeometry x="-1000" y="890" width="80" height="80" as="geometry" />
        </mxCell>
        <mxCell id="h2Y0RTakNAgf0IYQmvkw-24" value="timeValue:&lt;br&gt;Temporal-&lt;br&gt;Accessor" style="ellipse;whiteSpace=wrap;html=1;aspect=fixed;fillColor=#d5e8d4;strokeColor=#82b366;" parent="1" vertex="1">
          <mxGeometry x="-480" y="890" width="80" height="80" as="geometry" />
        </mxCell>
        <mxCell id="h2Y0RTakNAgf0IYQmvkw-27" style="edgeStyle=orthogonalEdgeStyle;curved=1;orthogonalLoop=1;jettySize=auto;html=1;exitX=0.5;exitY=0;exitDx=0;exitDy=0;strokeColor=#000000;entryX=0.5;entryY=1;entryDx=0;entryDy=0;" parent="1" source="Ppe5W4pmTjv7zWw10zAY-5" target="h2Y0RTakNAgf0IYQmvkw-20" edge="1">
          <mxGeometry relative="1" as="geometry">
            <mxPoint x="-850" y="980" as="targetPoint" />
            <mxPoint x="-210" y="580" as="sourcePoint" />
            <Array as="points">
              <mxPoint x="-910" y="1100" />
              <mxPoint x="-870" y="1100" />
            </Array>
          </mxGeometry>
        </mxCell>
        <mxCell id="h2Y0RTakNAgf0IYQmvkw-39" style="edgeStyle=orthogonalEdgeStyle;curved=1;orthogonalLoop=1;jettySize=auto;html=1;exitX=0.5;exitY=1;exitDx=0;exitDy=0;dashed=1;entryX=0.5;entryY=0;entryDx=0;entryDy=0;" parent="1" source="BWCG1YFNvTNrp1tG9PvR-8" target="h2Y0RTakNAgf0IYQmvkw-22" edge="1">
          <mxGeometry relative="1" as="geometry">
            <mxPoint x="330" y="820" as="targetPoint" />
            <mxPoint x="-1110" y="1200" as="sourcePoint" />
          </mxGeometry>
        </mxCell>
        <mxCell id="h2Y0RTakNAgf0IYQmvkw-40" style="edgeStyle=orthogonalEdgeStyle;curved=1;orthogonalLoop=1;jettySize=auto;html=1;exitX=0.5;exitY=1;exitDx=0;exitDy=0;dashed=1;entryX=0.5;entryY=0;entryDx=0;entryDy=0;strokeColor=#FF0000;" parent="1" source="BWCG1YFNvTNrp1tG9PvR-10" target="h2Y0RTakNAgf0IYQmvkw-23" edge="1">
          <mxGeometry relative="1" as="geometry">
            <mxPoint x="20" y="730" as="targetPoint" />
            <mxPoint x="-1220" y="810" as="sourcePoint" />
          </mxGeometry>
        </mxCell>
        <mxCell id="h2Y0RTakNAgf0IYQmvkw-41" style="edgeStyle=orthogonalEdgeStyle;curved=1;orthogonalLoop=1;jettySize=auto;html=1;exitX=0.5;exitY=1;exitDx=0;exitDy=0;dashed=1;entryX=0.5;entryY=0;entryDx=0;entryDy=0;" parent="1" source="h2Y0RTakNAgf0IYQmvkw-3" target="h2Y0RTakNAgf0IYQmvkw-20" edge="1">
          <mxGeometry relative="1" as="geometry">
            <mxPoint x="20" y="730" as="targetPoint" />
            <mxPoint x="-1220" y="810" as="sourcePoint" />
          </mxGeometry>
        </mxCell>
        <mxCell id="h2Y0RTakNAgf0IYQmvkw-42" style="edgeStyle=orthogonalEdgeStyle;curved=1;orthogonalLoop=1;jettySize=auto;html=1;exitX=0.5;exitY=1;exitDx=0;exitDy=0;dashed=1;entryX=0.5;entryY=0;entryDx=0;entryDy=0;strokeColor=#FF0000;" parent="1" source="h2Y0RTakNAgf0IYQmvkw-4" target="h2Y0RTakNAgf0IYQmvkw-21" edge="1">
          <mxGeometry relative="1" as="geometry">
            <mxPoint x="-310" y="735" as="targetPoint" />
            <mxPoint x="-860" y="810" as="sourcePoint" />
          </mxGeometry>
        </mxCell>
        <mxCell id="h2Y0RTakNAgf0IYQmvkw-45" style="edgeStyle=orthogonalEdgeStyle;curved=1;orthogonalLoop=1;jettySize=auto;html=1;exitX=0.5;exitY=1;exitDx=0;exitDy=0;dashed=1;entryX=0.5;entryY=0;entryDx=0;entryDy=0;" parent="1" source="h2Y0RTakNAgf0IYQmvkw-13" target="Ppe5W4pmTjv7zWw10zAY-16" edge="1">
          <mxGeometry relative="1" as="geometry">
            <mxPoint x="-60" y="1080" as="targetPoint" />
            <mxPoint x="-430" y="490" as="sourcePoint" />
            <Array as="points">
              <mxPoint x="-400" y="480" />
              <mxPoint x="-400" y="860" />
              <mxPoint x="-210" y="860" />
              <mxPoint x="-210" y="1200" />
              <mxPoint x="-600" y="1200" />
            </Array>
          </mxGeometry>
        </mxCell>
        <mxCell id="dzw76KjQPkLIqhUCmITL-3" value="category: Codable-&lt;br&gt;Concept" style="ellipse;whiteSpace=wrap;html=1;aspect=fixed;fillColor=#d5e8d4;strokeColor=#82b366;" parent="1" vertex="1">
          <mxGeometry x="-1160" y="380" width="80" height="80" as="geometry" />
        </mxCell>
        <mxCell id="dzw76KjQPkLIqhUCmITL-4" value="vitalSigns-&lt;br&gt;Category:&lt;br&gt;Codable-&lt;br&gt;Concept" style="ellipse;whiteSpace=wrap;html=1;aspect=fixed;fillColor=#d5e8d4;strokeColor=#82b366;" parent="1" vertex="1">
          <mxGeometry x="-1170" y="550" width="80" height="80" as="geometry" />
        </mxCell>
        <mxCell id="dzw76KjQPkLIqhUCmITL-5" value="code: Codable-&lt;br&gt;Concept" style="ellipse;whiteSpace=wrap;html=1;aspect=fixed;fillColor=#d5e8d4;strokeColor=#82b366;" parent="1" vertex="1">
          <mxGeometry x="-617.75" y="400" width="80" height="80" as="geometry" />
        </mxCell>
        <mxCell id="dzw76KjQPkLIqhUCmITL-6" style="edgeStyle=orthogonalEdgeStyle;curved=1;orthogonalLoop=1;jettySize=auto;html=1;strokeColor=#000000;entryX=0.5;entryY=0;entryDx=0;entryDy=0;exitX=0.5;exitY=1;exitDx=0;exitDy=0;" parent="1" source="BWCG1YFNvTNrp1tG9PvR-2" target="dzw76KjQPkLIqhUCmITL-3" edge="1">
          <mxGeometry relative="1" as="geometry">
            <mxPoint x="-910" y="390" as="targetPoint" />
            <mxPoint x="-670" y="330" as="sourcePoint" />
            <Array as="points">
              <mxPoint x="-680" y="340" />
              <mxPoint x="-1120" y="340" />
            </Array>
          </mxGeometry>
        </mxCell>
        <mxCell id="dzw76KjQPkLIqhUCmITL-7" style="edgeStyle=orthogonalEdgeStyle;curved=1;orthogonalLoop=1;jettySize=auto;html=1;strokeColor=#000000;exitX=0.5;exitY=1;exitDx=0;exitDy=0;entryX=0.5;entryY=0;entryDx=0;entryDy=0;" parent="1" source="BWCG1YFNvTNrp1tG9PvR-2" target="h2Y0RTakNAgf0IYQmvkw-9" edge="1">
          <mxGeometry relative="1" as="geometry">
            <mxPoint x="-570" y="420" as="targetPoint" />
            <mxPoint x="-670" y="330" as="sourcePoint" />
            <Array as="points">
              <mxPoint x="-680" y="360" />
              <mxPoint x="-730" y="360" />
            </Array>
          </mxGeometry>
        </mxCell>
        <mxCell id="dzw76KjQPkLIqhUCmITL-9" value="status: code" style="ellipse;whiteSpace=wrap;html=1;aspect=fixed;fillColor=#d5e8d4;strokeColor=#82b366;" parent="1" vertex="1">
          <mxGeometry x="-380" y="400" width="80" height="80" as="geometry" />
        </mxCell>
        <mxCell id="dzw76KjQPkLIqhUCmITL-10" style="edgeStyle=orthogonalEdgeStyle;curved=1;orthogonalLoop=1;jettySize=auto;html=1;strokeColor=#000000;entryX=0.5;entryY=0;entryDx=0;entryDy=0;" parent="1" target="dzw76KjQPkLIqhUCmITL-9" edge="1">
          <mxGeometry relative="1" as="geometry">
            <mxPoint x="-430" y="410" as="targetPoint" />
            <mxPoint x="-680" y="320" as="sourcePoint" />
            <Array as="points">
              <mxPoint x="-680" y="340" />
              <mxPoint x="-340" y="340" />
            </Array>
          </mxGeometry>
        </mxCell>
        <mxCell id="dzw76KjQPkLIqhUCmITL-19" style="edgeStyle=orthogonalEdgeStyle;curved=1;orthogonalLoop=1;jettySize=auto;html=1;strokeColor=#000000;entryX=0.5;entryY=0;entryDx=0;entryDy=0;exitX=0.5;exitY=1;exitDx=0;exitDy=0;" parent="1" source="dzw76KjQPkLIqhUCmITL-3" target="dzw76KjQPkLIqhUCmITL-4" edge="1">
          <mxGeometry relative="1" as="geometry">
            <mxPoint x="-1100.0000000000005" y="400" as="targetPoint" />
            <mxPoint x="-660.0000000000005" y="340" as="sourcePoint" />
            <Array as="points">
              <mxPoint x="-1120" y="480" />
              <mxPoint x="-1120" y="480" />
            </Array>
          </mxGeometry>
        </mxCell>
        <mxCell id="Ppe5W4pmTjv7zWw10zAY-2" value="Blutdruck" style="rounded=1;whiteSpace=wrap;html=1;fillColor=#dae8fc;strokeColor=#6c8ebf;" parent="1" vertex="1">
          <mxGeometry x="-700" y="1510" width="200" height="60" as="geometry" />
        </mxCell>
        <mxCell id="Ppe5W4pmTjv7zWw10zAY-3" value="&lt;div class=&quot;cm-node-details-value cm-node-details-arch-id&quot;&gt;openEHR-EHR-COMPOSITION.report-result.v1&lt;/div&gt;" style="rounded=1;whiteSpace=wrap;html=1;fillColor=#ffe6cc;strokeColor=#d79b00;" parent="1" vertex="1">
          <mxGeometry x="-700" y="1380" width="200" height="60" as="geometry" />
        </mxCell>
        <mxCell id="h2Y0RTakNAgf0IYQmvkw-25" value="originValue:&lt;br&gt;Temporal-&lt;br&gt;Accessor" style="ellipse;whiteSpace=wrap;html=1;aspect=fixed;fillColor=#d5e8d4;strokeColor=#82b366;" parent="1" vertex="1">
          <mxGeometry x="-360" y="890" width="80" height="80" as="geometry" />
        </mxCell>
        <mxCell id="Ppe5W4pmTjv7zWw10zAY-4" style="edgeStyle=orthogonalEdgeStyle;curved=1;orthogonalLoop=1;jettySize=auto;html=1;exitX=0.5;exitY=1;exitDx=0;exitDy=0;dashed=1;entryX=0.5;entryY=0;entryDx=0;entryDy=0;strokeColor=#FF0000;" parent="1" source="dzw76KjQPkLIqhUCmITL-4" target="Ppe5W4pmTjv7zWw10zAY-14" edge="1">
          <mxGeometry relative="1" as="geometry">
            <mxPoint x="685" y="600" as="targetPoint" />
            <mxPoint x="-1120" y="580" as="sourcePoint" />
            <Array as="points">
              <mxPoint x="-1130" y="630" />
            </Array>
          </mxGeometry>
        </mxCell>
        <mxCell id="Ppe5W4pmTjv7zWw10zAY-5" value="&lt;div class=&quot;cm-node-details-value cm-node-details-arch-id&quot;&gt;&lt;span style=&quot;font-size: 11px&quot;&gt;openEHR-EHR-OBSERVATION.blood_pressure.v2&lt;/span&gt;&lt;br&gt;&lt;/div&gt;" style="rounded=1;whiteSpace=wrap;html=1;fillColor=#ffe6cc;strokeColor=#d79b00;" parent="1" vertex="1">
          <mxGeometry x="-1010" y="1160" width="200" height="60" as="geometry" />
        </mxCell>
        <mxCell id="Ppe5W4pmTjv7zWw10zAY-7" style="edgeStyle=orthogonalEdgeStyle;curved=1;orthogonalLoop=1;jettySize=auto;html=1;exitX=0.5;exitY=0;exitDx=0;exitDy=0;strokeColor=#000000;entryX=0.5;entryY=1;entryDx=0;entryDy=0;" parent="1" source="Ppe5W4pmTjv7zWw10zAY-5" target="h2Y0RTakNAgf0IYQmvkw-22" edge="1">
          <mxGeometry relative="1" as="geometry">
            <mxPoint x="-1000" y="870" as="targetPoint" />
            <mxPoint x="-1040" y="1060" as="sourcePoint" />
            <Array as="points">
              <mxPoint x="-910" y="1100" />
              <mxPoint x="-1070" y="1100" />
            </Array>
          </mxGeometry>
        </mxCell>
        <mxCell id="Ppe5W4pmTjv7zWw10zAY-8" style="edgeStyle=orthogonalEdgeStyle;curved=1;orthogonalLoop=1;jettySize=auto;html=1;exitX=0.5;exitY=0;exitDx=0;exitDy=0;strokeColor=#000000;entryX=0.5;entryY=1;entryDx=0;entryDy=0;" parent="1" source="Ppe5W4pmTjv7zWw10zAY-5" target="h2Y0RTakNAgf0IYQmvkw-23" edge="1">
          <mxGeometry relative="1" as="geometry">
            <mxPoint x="-1110" y="850" as="targetPoint" />
            <mxPoint x="-950" y="1040" as="sourcePoint" />
            <Array as="points">
              <mxPoint x="-910" y="1070" />
              <mxPoint x="-960" y="1070" />
            </Array>
          </mxGeometry>
        </mxCell>
        <mxCell id="Ppe5W4pmTjv7zWw10zAY-9" style="edgeStyle=orthogonalEdgeStyle;curved=1;orthogonalLoop=1;jettySize=auto;html=1;exitX=0.5;exitY=0;exitDx=0;exitDy=0;strokeColor=#000000;entryX=0.5;entryY=1;entryDx=0;entryDy=0;" parent="1" source="Ppe5W4pmTjv7zWw10zAY-5" target="h2Y0RTakNAgf0IYQmvkw-21" edge="1">
          <mxGeometry relative="1" as="geometry">
            <mxPoint x="-750" y="890" as="targetPoint" />
            <mxPoint x="-790" y="1080" as="sourcePoint" />
            <Array as="points">
              <mxPoint x="-910" y="1120" />
              <mxPoint x="-750" y="1120" />
            </Array>
          </mxGeometry>
        </mxCell>
        <mxCell id="Ppe5W4pmTjv7zWw10zAY-10" style="edgeStyle=orthogonalEdgeStyle;curved=1;orthogonalLoop=1;jettySize=auto;html=1;exitX=0.5;exitY=0;exitDx=0;exitDy=0;strokeColor=#000000;entryX=0.5;entryY=1;entryDx=0;entryDy=0;" parent="1" source="Ppe5W4pmTjv7zWw10zAY-5" target="h2Y0RTakNAgf0IYQmvkw-24" edge="1">
          <mxGeometry relative="1" as="geometry">
            <mxPoint x="-390" y="900" as="targetPoint" />
            <mxPoint x="-550" y="1090" as="sourcePoint" />
            <Array as="points">
              <mxPoint x="-910" y="1130" />
              <mxPoint x="-440" y="1130" />
            </Array>
          </mxGeometry>
        </mxCell>
        <mxCell id="Ppe5W4pmTjv7zWw10zAY-11" style="edgeStyle=orthogonalEdgeStyle;curved=1;orthogonalLoop=1;jettySize=auto;html=1;exitX=0.5;exitY=0;exitDx=0;exitDy=0;strokeColor=#000000;entryX=0.5;entryY=1;entryDx=0;entryDy=0;" parent="1" source="Ppe5W4pmTjv7zWw10zAY-5" target="h2Y0RTakNAgf0IYQmvkw-25" edge="1">
          <mxGeometry relative="1" as="geometry">
            <mxPoint x="150" y="910" as="targetPoint" />
            <mxPoint x="-310" y="1090" as="sourcePoint" />
            <Array as="points">
              <mxPoint x="-320" y="1160" />
            </Array>
          </mxGeometry>
        </mxCell>
        <mxCell id="Ppe5W4pmTjv7zWw10zAY-12" value="status: Enum" style="ellipse;whiteSpace=wrap;html=1;aspect=fixed;fillColor=#d5e8d4;strokeColor=#82b366;" parent="1" vertex="1">
          <mxGeometry x="-330" y="1220" width="80" height="80" as="geometry" />
        </mxCell>
        <mxCell id="Ppe5W4pmTjv7zWw10zAY-13" style="edgeStyle=orthogonalEdgeStyle;curved=1;orthogonalLoop=1;jettySize=auto;html=1;exitX=0.5;exitY=0;exitDx=0;exitDy=0;strokeColor=#000000;entryX=0.5;entryY=1;entryDx=0;entryDy=0;" parent="1" source="Ppe5W4pmTjv7zWw10zAY-3" target="Ppe5W4pmTjv7zWw10zAY-12" edge="1">
          <mxGeometry relative="1" as="geometry">
            <mxPoint x="30" y="1140" as="targetPoint" />
            <mxPoint x="-550" y="1320" as="sourcePoint" />
            <Array as="points">
              <mxPoint x="-600" y="1340" />
              <mxPoint x="-290" y="1340" />
            </Array>
          </mxGeometry>
        </mxCell>
        <mxCell id="Ppe5W4pmTjv7zWw10zAY-14" value="kategorie:&lt;br&gt;String" style="ellipse;whiteSpace=wrap;html=1;aspect=fixed;fillColor=#d5e8d4;strokeColor=#82b366;" parent="1" vertex="1">
          <mxGeometry x="-1170" y="1230" width="80" height="80" as="geometry" />
        </mxCell>
        <mxCell id="Ppe5W4pmTjv7zWw10zAY-15" style="edgeStyle=orthogonalEdgeStyle;curved=1;orthogonalLoop=1;jettySize=auto;html=1;exitX=0.5;exitY=0;exitDx=0;exitDy=0;strokeColor=#000000;entryX=0.5;entryY=1;entryDx=0;entryDy=0;" parent="1" source="Ppe5W4pmTjv7zWw10zAY-3" target="Ppe5W4pmTjv7zWw10zAY-14" edge="1">
          <mxGeometry relative="1" as="geometry">
            <mxPoint x="-200" y="1210" as="targetPoint" />
            <mxPoint x="-510" y="1310" as="sourcePoint" />
            <Array as="points">
              <mxPoint x="-600" y="1350" />
              <mxPoint x="-1130" y="1350" />
            </Array>
          </mxGeometry>
        </mxCell>
        <mxCell id="Ppe5W4pmTjv7zWw10zAY-16" value="start time: DateTime" style="ellipse;whiteSpace=wrap;html=1;aspect=fixed;fillColor=#d5e8d4;strokeColor=#82b366;" parent="1" vertex="1">
          <mxGeometry x="-640" y="1230" width="80" height="80" as="geometry" />
        </mxCell>
        <mxCell id="Ppe5W4pmTjv7zWw10zAY-17" style="edgeStyle=orthogonalEdgeStyle;curved=1;orthogonalLoop=1;jettySize=auto;html=1;exitX=0.5;exitY=0;exitDx=0;exitDy=0;strokeColor=#000000;entryX=0.5;entryY=1;entryDx=0;entryDy=0;" parent="1" source="Ppe5W4pmTjv7zWw10zAY-3" target="Ppe5W4pmTjv7zWw10zAY-16" edge="1">
          <mxGeometry relative="1" as="geometry">
            <mxPoint x="-450" y="1200" as="targetPoint" />
            <mxPoint x="-630" y="1300" as="sourcePoint" />
            <Array as="points">
              <mxPoint x="-600" y="1350" />
              <mxPoint x="-600" y="1350" />
            </Array>
          </mxGeometry>
        </mxCell>
        <mxCell id="Ppe5W4pmTjv7zWw10zAY-18" value="" style="endArrow=classic;html=1;exitX=0.5;exitY=0;exitDx=0;exitDy=0;entryX=0.5;entryY=1;entryDx=0;entryDy=0;" parent="1" source="Ppe5W4pmTjv7zWw10zAY-2" target="Ppe5W4pmTjv7zWw10zAY-3" edge="1">
          <mxGeometry width="50" height="50" relative="1" as="geometry">
            <mxPoint x="-520" y="1180" as="sourcePoint" />
            <mxPoint x="-470" y="1130" as="targetPoint" />
          </mxGeometry>
        </mxCell>
        <mxCell id="Ppe5W4pmTjv7zWw10zAY-19" style="edgeStyle=orthogonalEdgeStyle;curved=1;orthogonalLoop=1;jettySize=auto;html=1;exitX=0.5;exitY=0;exitDx=0;exitDy=0;strokeColor=#000000;entryX=0.5;entryY=1;entryDx=0;entryDy=0;" parent="1" source="Ppe5W4pmTjv7zWw10zAY-3" target="Ppe5W4pmTjv7zWw10zAY-5" edge="1">
          <mxGeometry relative="1" as="geometry">
            <mxPoint x="-1400" y="1200" as="targetPoint" />
            <mxPoint x="-870" y="1270" as="sourcePoint" />
            <Array as="points">
              <mxPoint x="-600" y="1330" />
              <mxPoint x="-910" y="1330" />
            </Array>
          </mxGeometry>
        </mxCell>
        <mxCell id="Ppe5W4pmTjv7zWw10zAY-20" style="edgeStyle=orthogonalEdgeStyle;curved=1;orthogonalLoop=1;jettySize=auto;html=1;exitX=0.5;exitY=1;exitDx=0;exitDy=0;dashed=1;entryX=0.5;entryY=0;entryDx=0;entryDy=0;" parent="1" source="h2Y0RTakNAgf0IYQmvkw-13" target="h2Y0RTakNAgf0IYQmvkw-24" edge="1">
          <mxGeometry relative="1" as="geometry">
            <mxPoint x="-290" y="820" as="targetPoint" />
            <mxPoint x="-290" y="730" as="sourcePoint" />
            <Array as="points">
              <mxPoint x="-440" y="580" />
              <mxPoint x="-440" y="580" />
            </Array>
          </mxGeometry>
        </mxCell>
        <mxCell id="Ppe5W4pmTjv7zWw10zAY-21" style="edgeStyle=orthogonalEdgeStyle;curved=1;orthogonalLoop=1;jettySize=auto;html=1;exitX=0.5;exitY=1;exitDx=0;exitDy=0;dashed=1;entryX=0.5;entryY=0;entryDx=0;entryDy=0;" parent="1" source="h2Y0RTakNAgf0IYQmvkw-13" target="h2Y0RTakNAgf0IYQmvkw-25" edge="1">
          <mxGeometry relative="1" as="geometry">
            <mxPoint x="-370" y="1080" as="targetPoint" />
            <mxPoint x="-370" y="670" as="sourcePoint" />
            <Array as="points">
              <mxPoint x="-330" y="480" />
              <mxPoint x="-330" y="840" />
              <mxPoint x="-320" y="840" />
            </Array>
          </mxGeometry>
        </mxCell>
        <mxCell id="Ppe5W4pmTjv7zWw10zAY-22" style="edgeStyle=orthogonalEdgeStyle;curved=1;orthogonalLoop=1;jettySize=auto;html=1;exitX=0.5;exitY=1;exitDx=0;exitDy=0;dashed=1;entryX=0.5;entryY=0;entryDx=0;entryDy=0;" parent="1" source="dzw76KjQPkLIqhUCmITL-9" target="Ppe5W4pmTjv7zWw10zAY-12" edge="1">
          <mxGeometry relative="1" as="geometry">
            <mxPoint x="-100" y="1120" as="targetPoint" />
            <mxPoint x="-220" y="710" as="sourcePoint" />
            <Array as="points">
              <mxPoint x="-270" y="480" />
              <mxPoint x="-270" y="1170" />
              <mxPoint x="-290" y="1170" />
            </Array>
          </mxGeometry>
        </mxCell>
        <mxCell id="Ppe5W4pmTjv7zWw10zAY-26" value="" style="rounded=0;whiteSpace=wrap;html=1;fillColor=none;" parent="1" vertex="1">
          <mxGeometry x="-1180" y="830" width="1260" height="760" as="geometry" />
        </mxCell>
        <mxCell id="Ppe5W4pmTjv7zWw10zAY-34" value="The category codable concept is transomed into a string which is a non-bidirectional transformation.&amp;nbsp;" style="shape=note;whiteSpace=wrap;html=1;backgroundOutline=1;darkOpacity=0.05;fillColor=#fff2cc;strokeColor=#d6b656;size=13;align=left;spacingLeft=4;" parent="1" vertex="1">
          <mxGeometry x="-210" y="255" width="230" height="80" as="geometry" />
        </mxCell>
        <mxCell id="Ppe5W4pmTjv7zWw10zAY-35" value="" style="endArrow=classic;html=1;dashed=1;strokeColor=#FF0000;" parent="1" edge="1">
          <mxGeometry width="50" height="50" relative="1" as="geometry">
            <mxPoint x="-200" y="360" as="sourcePoint" />
            <mxPoint x="-70" y="360" as="targetPoint" />
          </mxGeometry>
        </mxCell>
      </root>
    </mxGraphModel>
  </diagram>
</mxfile>
